<svg width="88" height="68" viewBox="0 0 88 68" fill="none" xmlns="http://www.w3.org/2000/svg">
<path d="M0.390625 67V1.375H13.6094V27.5312H17.2656V40.4688H13.6094V67H0.390625ZM22.4219 40.4688V27.5312H26.0781V1.375H39.2969V67H26.0781V40.4688H22.4219ZM46.6094 50.0312V18.4375C46.6094 14.8125 47.9531 11.2812 50.6406 7.84375C54.2031 3.28125 59.0156 0.96875 65.0781 0.90625V14.125C62.4531 14.1875 60.7656 15.4062 60.0156 17.7812C59.8906 18.0312 59.8281 18.25 59.8281 18.4375V50.0312C59.8281 51.0312 60.3594 52 61.4219 52.9375C62.4219 53.8125 63.6406 54.25 65.0781 54.25V67.4688C58.0781 67.4688 52.7969 64.5312 49.2344 58.6562C47.4844 55.6562 46.6094 52.7812 46.6094 50.0312ZM70.1406 67.4688V54.25C70.1406 54.25 70.8594 53.9688 72.2969 53.4062C73.1719 52.7812 73.7656 52.125 74.0781 51.4375C74.3906 50.625 74.5469 49.4688 74.5469 47.9688V46.8438L87.4844 49.9375C87.4844 55.375 85.2969 59.875 80.9219 63.4375C77.6094 66.125 74.0156 67.4688 70.1406 67.4688ZM70.1406 14.125V0.90625C74.7031 0.90625 78.8281 2.90625 82.5156 6.90625C85.8281 10.5312 87.4844 14.4375 87.4844 18.625L74.5469 22V20.5938C74.5469 19.0312 74.3906 17.875 74.0781 17.125C73.8281 16.5 73.3594 15.9375 72.6719 15.4375C72.0469 14.9375 71.4844 14.5938 70.9844 14.4062L70.1406 14.125Z" fill="white"/>
</svg>
